<?xml version="1.0" encoding="utf-8"?>
<!-- Generator: Adobe Illustrator 24.1.2, SVG Export Plug-In . SVG Version: 6.00 Build 0)  -->
<svg version="1.1" id="Layer_1" xmlns="http://www.w3.org/2000/svg" xmlns:xlink="http://www.w3.org/1999/xlink" x="0px" y="0px"
	 viewBox="0 0 400 247" style="enable-background:new 0 0 400 247;" xml:space="preserve">
<style type="text/css">
	.st0{fill:#FFFFFF;}
	.st1{fill:none;stroke:#FFFFFF;stroke-width:5;stroke-linecap:round;stroke-linejoin:round;stroke-miterlimit:10;}
</style>
<g>
	<g>
		<path class="st0" d="M211.7,193.7c21,0,39.9-9.3,52.7-24.1c0.1-0.1,0.2-0.2,0.3-0.4c10.5-12.2,16.9-28.1,16.9-45.5
			c0-11.9-3-23-8.2-32.8c0-0.1-0.1-0.2-0.1-0.2c-7.7-14.2-20.1-25.5-35.1-31.6c-0.1,0-0.2-0.1-0.3-0.1c-8.1-3.3-16.9-5.1-26.1-5.1
			c-6.6,0-12.9,0.9-18.9,2.6c-0.1,0-0.2,0.1-0.3,0.1c-21.3,6.1-38.4,22-46.2,42.5c0,0.1-0.1,0.2-0.1,0.2c-2.8,7.6-4.4,15.8-4.4,24.4
			C141.8,162.4,173.1,193.7,211.7,193.7z M193.6,166.5l3.8,7.6c0.2,0.4,0.2,1.3-0.1,1.7l-3.7,5.9l-15.1-16.6c-0.6-0.7-1.4-2.1-1.5-3
			l-2.6-11.9c-0.4-1.8-1.6-4.1-2.9-5.3l-4-4c-0.4-0.4-0.8-1.5-0.7-2l1.4-12.3c0-0.4,0-0.7,0-1.1l4.7-3c0.3-0.2,1-0.2,1.2,0l10.7,7.3
			c0.6,0.4,1.4,1.5,1.5,2.2c0.6,2.3,1.2,5.2,1.3,5.6c0,1.9,0,2.6,14.3,7.5l-2.3,7.6c-0.3,0.9-1.1,2.5-1.8,3.2l-3.4,3.8
			C192.9,161.4,192.5,164.4,193.6,166.5z M262.8,163.6l-2.5-3.9c-0.4-0.6-0.6-1.9-0.4-2.5l2.4-11.3c0.4-2-0.1-4.7-1.3-6.4
			l-10.6-15.2c-1.4-2-4.2-3-6.5-2.4l-5.7,1.5c-0.4,0.1-1.3-0.1-1.7-0.4l-2.5-2.3c-0.5-0.5-1.1-1.8-1.2-2.5l-0.5-5
			c-0.1-0.6,0.3-1.7,0.7-2.1l6.7-6.7c0.3-0.3,1.1-0.5,1.5-0.4l11.5,3.5c1.6,0.5,4,0.7,5.6,0.6l15.8-1.1c1.4,5.3,2.2,10.9,2.2,16.7
			C276.4,138.8,271.3,152.6,262.8,163.6z M265.2,87.5L252,83.2c-2.3-0.7-5.1,0.1-6.6,2.1l-4.8,6.3c-0.3,0.4-1.2,0.8-1.6,0.7
			l-6.7-0.6c-0.5,0-1.3-0.6-1.5-1l-1-1.9c-0.2-0.3-0.1-1.2,0.1-1.5l5-7.1c1.2-1.7,1.6-4.5,1-6.5l-1.4-4.9c-0.1-0.4,0.1-1.2,0.4-1.5
			l2.8-2.8C248.8,69.4,258.4,77.4,265.2,87.5z M211.7,59c0.9,0,1.8,0,2.6,0.1l-7.4,8.8c-0.3,0.4-0.8,0.6-1.2,0.6
			c-0.4,0-0.8-0.2-1.2-0.6l-6.5-7.4C202.4,59.6,207,59,211.7,59z M192.5,61.9l8.1,9.4c1.3,1.5,3.2,2.4,5.1,2.4c0,0,0,0,0,0
			c1.9,0,3.8-0.9,5.1-2.5l9.7-11.6c4.1,0.6,8,1.5,11.8,2.8l-1.2,1.2c-1.6,1.6-2.3,4.4-1.7,6.6l1.4,4.9c0.2,0.5,0,1.7-0.3,2.1l-5,7.1
			c-1.3,1.9-1.5,4.7-0.4,6.8l1,1.9c1,2,3.4,3.5,5.6,3.7l6.7,0.6c0.2,0,0.3,0,0.5,0c2.1,0,4.4-1.1,5.7-2.7l4.8-6.3
			c0.1-0.2,0.7-0.4,0.9-0.3l18.8,6.1c1.3,2.6,2.5,5.2,3.5,7.9l-14.6,1c-1,0.1-2.8-0.1-3.8-0.4l-11.5-3.5c-2.2-0.7-5,0-6.6,1.7
			l-6.7,6.7c-1.5,1.5-2.4,4.1-2.2,6.2l0.5,5c0.2,1.9,1.4,4.3,2.8,5.7l2.5,2.3c1.6,1.5,4.4,2.2,6.5,1.7l5.7-1.5
			c0.2-0.1,0.8,0.1,1,0.4l10.6,15.2c0.4,0.5,0.6,1.7,0.5,2.3l-2.4,11.3c-0.4,2,0,4.6,1.1,6.3l3.3,5.2
			c-11.8,12.9-28.8,20.9-47.6,20.9c-5.4,0-10.6-0.7-15.6-1.9c0.6-0.4,1-0.9,1.4-1.5l4.2-6.7c1.2-1.9,1.3-4.7,0.3-6.7l-3.8-7.6
			c-0.1-0.3,0-0.9,0.2-1.2l3.4-3.8c1.1-1.3,2.3-3.5,2.8-5.1l2.3-7.6c0.8-2.6-0.7-5.4-3.2-6.3c-4.2-1.4-9.1-3.3-11-4.2
			c-0.2-1-0.5-2.6-1.2-5.4c-0.5-1.9-2-4.1-3.6-5.2l-10.7-7.3c-1.9-1.3-4.9-1.4-6.9-0.1l-4.1,2.6c-0.1-0.1-0.3-0.3-0.5-0.4l-3.6-2.8
			c-0.1-0.1-0.3-0.3-0.4-0.4l6.2-17.1l6.5,1.7c2.6,0.7,5.4-0.8,6.2-3.4l3.2-10.3c0.2-0.5,0.9-1.2,1.4-1.4l8.4-2.8
			c1.4-0.5,2.5-1.5,2.8-2.8c0.4-1.3,0-2.7-0.9-3.9l-10.4-12.2C187.3,63.8,189.8,62.8,192.5,61.9z M180.1,67.3l10.3,12.1l-7.1,2.3
			c-2.1,0.7-4,2.7-4.7,4.7l-3.2,10.3l-6.5-1.7c-2.6-0.7-5.3,0.8-6.2,3.3l-4.8,13.4l-6.5-11.9C157,86.1,167.2,74.5,180.1,67.3z
			 M149.2,106.5l5.8,10.6c0.2,0.5,0.6,0.9,1,1.4c0.2,0.8,0.7,1.6,1.6,1.9c0.4,0.4,0.8,0.8,1.2,1.1l3.6,2.8c0.4,0.3,0.7,1.2,0.7,1.6
			l-1.4,12.3c-0.2,2.1,0.7,4.7,2.2,6.2l4,4c0.6,0.6,1.4,2,1.5,2.8l2.6,11.9c0.4,1.7,1.6,4,2.8,5.3l14.7,16.1
			c-24.8-9.1-42.5-32.9-42.5-60.8C146.9,117.8,147.7,112.1,149.2,106.5z"/>
	</g>
	<circle class="st1" cx="211.7" cy="123.5" r="119.8"/>
	<path class="st1" d="M244.9,31.9c17.9,6.2,33.4,17.9,44.3,33"/>
	<path class="st1" d="M38.5,92.2L38.5,92.2c-7.5,0-13.6,6.1-13.6,13.6v115.5c0,7.5,6.1,13.6,13.6,13.6l0,0c7.5,0,13.6-6.1,13.6-13.6
		V105.8C52.1,98.3,45.9,92.2,38.5,92.2z"/>
	<path class="st1" d="M70.8,12.1v52.1c0,15.4-14.5,28-32.3,28l0,0c-17.8,0-32.3-12.5-32.3-28V12.1"/>
	<line class="st1" x1="27.8" y1="64.9" x2="27.8" y2="12.1"/>
	<line class="st1" x1="49.1" y1="64.9" x2="49.1" y2="12.1"/>
	<path class="st1" d="M380.2,135.4L380.2,135.4c-7.5,0-13.6,6.1-13.6,13.6v72.3c0,7.5,6.1,13.6,13.6,13.6l0,0
		c7.5,0,13.6-6.1,13.6-13.6V149C393.8,141.5,387.7,135.4,380.2,135.4z"/>
	<path class="st1" d="M393.8,127.3V12.1c0,0-37,40-37,114.3c0,4.9,3.8,9,8.7,9l20.3,0C390.2,135.4,393.8,131.8,393.8,127.3z"/>
</g>
</svg>
